<svg width="33" height="31" viewBox="0 0 33 31" fill="none" xmlns="http://www.w3.org/2000/svg">
<rect x="1.5" y="1" width="30" height="29" rx="14.5" stroke="white" stroke-width="2"/>
<path d="M10.6357 19.2017C15.1368 21.3791 17.8375 21.3791 22.3385 19.2017" stroke="white" stroke-width="1.5" stroke-linecap="round" stroke-linejoin="round"/>
<path d="M19.6381 20.5081L20.5383 22.25C20.5383 22.25 24.2931 21.0934 25.4895 19.2016C25.4895 18.3306 25.9666 12.1058 22.7888 10.0565C21.4385 9.18548 19.188 8.75 19.188 8.75L18.2877 10.4919H16.4873" stroke="white" stroke-width="1.5" stroke-linecap="round" stroke-linejoin="round"/>
<path d="M13.3617 20.5081L12.4615 22.25C12.4615 22.25 8.7067 21.0934 7.51031 19.2016C7.51031 18.3306 7.03319 12.1058 10.211 10.0565C11.5613 9.18548 13.8118 8.75 13.8118 8.75L14.712 10.4919H16.5125" stroke="white" stroke-width="1.5" stroke-linecap="round" stroke-linejoin="round"/>
<path d="M13.3367 17.4595C12.5913 17.4595 11.9863 16.6799 11.9863 15.7175C11.9863 14.7551 12.5913 13.9756 13.3367 13.9756C14.082 13.9756 14.687 14.7551 14.687 15.7175C14.687 16.6799 14.082 17.4595 13.3367 17.4595ZM19.6382 17.4595C18.8928 17.4595 18.2878 16.6799 18.2878 15.7175C18.2878 14.7551 18.8928 13.9756 19.6382 13.9756C20.3835 13.9756 20.9885 14.7551 20.9885 15.7175C20.9885 16.6799 20.3835 17.4595 19.6382 17.4595Z" stroke="white" stroke-width="1.5" stroke-linecap="round" stroke-linejoin="round"/>
</svg>
