<svg width="33" height="31" viewBox="0 0 33 31" fill="none" xmlns="http://www.w3.org/2000/svg">
<rect x="1.5" y="1" width="30" height="29" rx="14.5" stroke="white" stroke-width="2"/>
<path d="M8.364 12.503C8.34533 12.4097 8.32667 12.2813 8.308 12.118C8.294 11.95 8.28 11.775 8.266 11.593C8.25667 11.411 8.24967 11.2477 8.245 11.103C8.24033 10.9537 8.238 10.851 8.238 10.795C8.76533 10.7577 9.365 10.725 10.037 10.697C10.7137 10.669 11.3973 10.655 12.088 10.655C12.606 10.655 13.1077 10.6667 13.593 10.69C14.083 10.7087 14.531 10.746 14.937 10.802C14.9417 11.1333 14.9323 11.4483 14.909 11.747C14.8857 12.041 14.8577 12.265 14.825 12.419C14.7317 12.419 14.5963 12.419 14.419 12.419C14.2417 12.4143 14.0433 12.4097 13.824 12.405C13.6047 12.4003 13.3877 12.398 13.173 12.398C12.9583 12.3933 12.7717 12.391 12.613 12.391C12.6177 12.5637 12.6247 12.8227 12.634 13.168C12.648 13.5087 12.6643 13.903 12.683 14.351C12.7017 14.799 12.7203 15.268 12.739 15.758C12.7623 16.248 12.7833 16.731 12.802 17.207C12.8207 17.683 12.837 18.1193 12.851 18.516C12.8697 18.9127 12.8837 19.2393 12.893 19.496C12.907 19.7527 12.914 19.909 12.914 19.965C12.7507 19.9883 12.536 20.0093 12.27 20.028C12.0087 20.0513 11.7473 20.0677 11.486 20.077C11.2247 20.091 11.0123 20.098 10.849 20.098C10.835 19.8227 10.821 19.482 10.807 19.076C10.793 18.67 10.7813 18.229 10.772 17.753C10.7627 17.2723 10.7533 16.7823 10.744 16.283C10.7347 15.779 10.7277 15.289 10.723 14.813C10.7183 14.337 10.716 13.9007 10.716 13.504C10.716 13.2893 10.716 13.091 10.716 12.909C10.716 12.727 10.7183 12.5637 10.723 12.419C10.555 12.4283 10.3683 12.4377 10.163 12.447C9.96233 12.4517 9.75467 12.4587 9.54 12.468C9.32533 12.4773 9.11767 12.4843 8.917 12.489C8.71633 12.4937 8.532 12.4983 8.364 12.503ZM21.0064 20.112C20.9271 19.8647 20.8408 19.5893 20.7474 19.286C20.6588 18.978 20.5654 18.663 20.4674 18.341C20.3741 18.0143 20.2854 17.6993 20.2014 17.396C20.1174 17.088 20.0428 16.8127 19.9774 16.57C19.9168 16.3273 19.8724 16.136 19.8444 15.996L20.0754 15.968C20.0568 16.0287 20.0124 16.1523 19.9424 16.339C19.8724 16.521 19.7861 16.7427 19.6834 17.004C19.5808 17.2653 19.4711 17.5453 19.3544 17.844C19.2378 18.138 19.1211 18.4273 19.0044 18.712C18.8878 18.992 18.7804 19.2463 18.6824 19.475C18.5844 19.7037 18.5074 19.881 18.4514 20.007L16.3024 19.93C16.2511 19.4773 16.2021 18.9757 16.1554 18.425C16.1134 17.8743 16.0714 17.2863 16.0294 16.661C15.9921 16.0357 15.9571 15.387 15.9244 14.715C15.8964 14.0383 15.8731 13.35 15.8544 12.65C15.8358 11.9453 15.8264 11.2407 15.8264 10.536L17.9544 10.62C17.9544 11.054 17.9498 11.5277 17.9404 12.041C17.9358 12.5497 17.9288 13.07 17.9194 13.602C17.9148 14.1293 17.9101 14.6497 17.9054 15.163C17.9008 15.6717 17.8984 16.1453 17.8984 16.584C17.9031 17.0227 17.9101 17.403 17.9194 17.725L17.8074 17.823C17.8588 17.669 17.9264 17.4637 18.0104 17.207C18.0991 16.9503 18.1948 16.6657 18.2974 16.353C18.4048 16.0403 18.5121 15.7183 18.6194 15.387C18.7268 15.0557 18.8271 14.736 18.9204 14.428C19.0184 14.1153 19.0978 13.8377 19.1584 13.595C19.2238 13.3523 19.2634 13.1633 19.2774 13.028L20.7614 13.007C20.7661 13.0817 20.7871 13.2427 20.8244 13.49C20.8664 13.7373 20.9201 14.036 20.9854 14.386C21.0554 14.736 21.1278 15.107 21.2024 15.499C21.2818 15.8863 21.3588 16.2643 21.4334 16.633C21.5128 16.997 21.5851 17.3213 21.6504 17.606C21.7158 17.8907 21.7694 18.096 21.8114 18.222L21.5524 18.243C21.6411 17.7483 21.7204 17.165 21.7904 16.493C21.8604 15.8163 21.9188 15.114 21.9654 14.386C22.0168 13.658 22.0541 12.9603 22.0774 12.293C22.1008 11.621 22.1124 11.0447 22.1124 10.564L24.0514 10.368C24.0514 11.194 24.0188 12.0317 23.9534 12.881C23.8928 13.7257 23.8134 14.54 23.7154 15.324C23.6174 16.108 23.5171 16.8243 23.4144 17.473C23.3118 18.117 23.2161 18.6537 23.1274 19.083C23.0434 19.5123 22.9851 19.7923 22.9524 19.923L21.0064 20.112Z" fill="white"/>
</svg>
